<svg width="31" height="32" viewBox="0 0 31 32" fill="none" xmlns="http://www.w3.org/2000/svg">
<path d="M21.1379 8.78461C18.6967 8.78461 17.665 9.94953 15.9648 9.94953C14.2217 9.94953 12.892 8.79308 10.7765 8.79308C8.70583 8.79308 6.49769 10.0573 5.09542 12.211C3.12644 15.248 3.46066 20.9678 6.64966 25.8407C7.79036 27.585 9.31372 29.5413 11.3118 29.5625H11.3481C13.0846 29.5625 13.6004 28.4254 15.9902 28.4121H16.0266C18.3806 28.4121 18.8529 29.5558 20.5821 29.5558H20.6184C22.6165 29.5346 24.2216 27.3671 25.3623 25.6294C26.1833 24.3797 26.4884 23.7524 27.1181 22.3386C22.5051 20.5876 21.764 14.0479 26.3262 11.5407C24.9336 9.79695 22.9767 8.78703 21.1319 8.78703L21.1379 8.78461Z" fill="white"/>
<path d="M20.6008 2.43903C19.1477 2.53772 17.4524 3.46287 16.4594 4.67078C15.5585 5.76547 14.8174 7.38934 15.108 8.96416H15.2243C16.7719 8.96416 18.3558 8.03234 19.2809 6.83836C20.1722 5.7019 20.8479 4.09135 20.6008 2.43903Z" fill="white"/>
</svg>
