<svg width="27" height="27" viewBox="0 0 27 27" fill="none" xmlns="http://www.w3.org/2000/svg">
<path d="M9.2811 23.625C10.2131 23.625 10.9686 22.8695 10.9686 21.9375C10.9686 21.0055 10.2131 20.25 9.2811 20.25C8.34912 20.25 7.5936 21.0055 7.5936 21.9375C7.5936 22.8695 8.34912 23.625 9.2811 23.625Z" fill="white"/>
<path d="M21.0937 23.625C22.0256 23.625 22.7812 22.8695 22.7812 21.9375C22.7812 21.0055 22.0256 20.25 21.0937 20.25C20.1617 20.25 19.4062 21.0055 19.4062 21.9375C19.4062 22.8695 20.1617 23.625 21.0937 23.625Z" fill="white"/>
<path d="M24.0889 6.3695C23.9704 6.22451 23.8211 6.10773 23.6518 6.02764C23.4825 5.94756 23.2975 5.90617 23.1102 5.90649H7.06048L6.73722 4.07239C6.70275 3.87703 6.60054 3.70005 6.44855 3.57256C6.29656 3.44506 6.10451 3.3752 5.90613 3.37524H2.53113C2.30735 3.37524 2.09274 3.46414 1.93451 3.62237C1.77627 3.78061 1.68738 3.99522 1.68738 4.21899C1.68738 4.44277 1.77627 4.65738 1.93451 4.81561C2.09274 4.97385 2.30735 5.06274 2.53113 5.06274H5.19843L7.60628 18.7093C7.64075 18.9047 7.74296 19.0817 7.89495 19.2092C8.04694 19.3367 8.23899 19.4065 8.43738 19.4065H21.9374C22.1611 19.4065 22.3758 19.3176 22.534 19.1594C22.6922 19.0011 22.7811 18.7865 22.7811 18.5627C22.7811 18.339 22.6922 18.1244 22.534 17.9661C22.3758 17.8079 22.1611 17.719 21.9374 17.719H9.14507L8.84765 16.0315H21.5914C21.884 16.0311 22.1675 15.9297 22.3939 15.7443C22.6203 15.5589 22.7757 15.301 22.8339 15.0142L24.3526 7.4205C24.3892 7.23672 24.3845 7.04711 24.3389 6.86535C24.2933 6.6836 24.2079 6.51424 24.0889 6.3695Z" fill="white"/>
</svg>
