<svg width="16" height="16" viewBox="0 0 16 16" fill="none" xmlns="http://www.w3.org/2000/svg">
<path d="M13.0392 7.06262H8.93761C8.56465 7.06262 8.20697 6.91446 7.94325 6.65074C7.67952 6.38702 7.53136 6.02933 7.53136 5.65637V1.55481C7.53136 1.52373 7.51902 1.49392 7.49704 1.47195C7.47506 1.44997 7.44526 1.43762 7.41418 1.43762H4.71886C4.22158 1.43762 3.74467 1.63517 3.39304 1.9868C3.04141 2.33843 2.84386 2.81534 2.84386 3.31262V12.6876C2.84386 13.1849 3.04141 13.6618 3.39304 14.0134C3.74467 14.3651 4.22158 14.5626 4.71886 14.5626H11.2814C11.7786 14.5626 12.2556 14.3651 12.6072 14.0134C12.9588 13.6618 13.1564 13.1849 13.1564 12.6876V7.17981C13.1564 7.14873 13.144 7.11892 13.122 7.09694C13.1001 7.07497 13.0703 7.06262 13.0392 7.06262Z" fill="#0075FF"/>
<path d="M12.782 6.02594L8.56877 1.81275C8.56057 1.80461 8.55016 1.79907 8.53882 1.79683C8.52749 1.79459 8.51574 1.79575 8.50507 1.80016C8.49439 1.80458 8.48526 1.81205 8.47882 1.82164C8.47238 1.83123 8.46891 1.84251 8.46886 1.85406V5.65709C8.46886 5.78141 8.51825 5.90064 8.60616 5.98855C8.69407 6.07645 8.81329 6.12584 8.93761 6.12584H12.7406C12.7522 6.12579 12.7635 6.12233 12.7731 6.11589C12.7827 6.10945 12.7901 6.10031 12.7945 6.08964C12.799 6.07896 12.8001 6.06722 12.7979 6.05588C12.7956 6.04455 12.7901 6.03413 12.782 6.02594V6.02594Z" fill="#0075FF"/>
</svg>
