<svg width="16" height="16" viewBox="0 0 16 16" fill="none" xmlns="http://www.w3.org/2000/svg">
<path d="M1.43755 11.5152C1.43755 11.9503 1.6104 12.3676 1.91807 12.6753C2.22575 12.983 2.64305 13.1559 3.07817 13.1559H12.9219C13.357 13.1559 13.7743 12.983 14.082 12.6753C14.3897 12.3676 14.5625 11.9503 14.5625 11.5152V7.00351H1.43755V11.5152ZM3.37114 9.28867C3.37114 9.05557 3.46374 8.83201 3.62856 8.66719C3.79339 8.50236 4.01694 8.40976 4.25004 8.40976H5.65629C5.88939 8.40976 6.11295 8.50236 6.27777 8.66719C6.4426 8.83201 6.5352 9.05557 6.5352 9.28867V9.8746C6.5352 10.1077 6.4426 10.3313 6.27777 10.4961C6.11295 10.6609 5.88939 10.7535 5.65629 10.7535H4.25004C4.01694 10.7535 3.79339 10.6609 3.62856 10.4961C3.46374 10.3313 3.37114 10.1077 3.37114 9.8746V9.28867Z" fill="#0075FF"/>
<path d="M12.9219 2.84296H3.07817C2.64305 2.84296 2.22575 3.01581 1.91807 3.32348C1.6104 3.63116 1.43755 4.04846 1.43755 4.48358V5.2453H14.5625V4.48358C14.5625 4.04846 14.3897 3.63116 14.082 3.32348C13.7743 3.01581 13.357 2.84296 12.9219 2.84296Z" fill="#0075FF"/>
</svg>
