<svg width="16" height="16" viewBox="0 0 16 16" fill="none" xmlns="http://www.w3.org/2000/svg">
<path d="M14.4935 1.62154C14.4881 1.59562 14.4755 1.57178 14.4571 1.55278C14.4386 1.53379 14.4152 1.52045 14.3895 1.51431C12.6735 1.09478 8.70879 2.5898 6.56074 4.73696C6.17762 5.11699 5.82835 5.52968 5.5169 5.97036C4.8545 5.91177 4.19209 5.96069 3.62754 6.20679C2.03467 6.90786 1.5709 8.73716 1.4417 9.52407C1.43438 9.56714 1.43714 9.61133 1.44978 9.65315C1.46242 9.69497 1.48459 9.73329 1.51455 9.76509C1.5445 9.79689 1.58143 9.82131 1.62242 9.83643C1.66341 9.85154 1.70735 9.85694 1.75079 9.8522L4.30869 9.57007C4.31052 9.76292 4.32216 9.95555 4.34356 10.1472C4.35643 10.2803 4.41551 10.4047 4.51055 10.4988L5.50108 11.487C5.59524 11.5819 5.71958 11.6409 5.85264 11.654C6.04323 11.6753 6.23479 11.6869 6.42656 11.6888L6.1459 14.2435C6.14122 14.2869 6.14666 14.3308 6.16179 14.3718C6.17693 14.4128 6.20135 14.4497 6.23314 14.4796C6.26493 14.5095 6.30322 14.5317 6.34501 14.5444C6.38681 14.557 6.43096 14.5599 6.47403 14.5526C7.25947 14.4266 9.09199 13.9628 9.78897 12.37C10.0351 11.8054 10.0854 11.1462 10.0286 10.4871C10.4704 10.1756 10.8841 9.82622 11.2652 9.44292C13.42 7.29897 14.9065 3.42271 14.4935 1.62154ZM9.11543 6.8853C8.91867 6.68867 8.78465 6.4381 8.73031 6.16529C8.67598 5.89248 8.70377 5.60968 8.81018 5.35267C8.91659 5.09566 9.09683 4.87598 9.32811 4.72142C9.55938 4.56686 9.8313 4.48436 10.1095 4.48436C10.3876 4.48436 10.6596 4.56686 10.8908 4.72142C11.1221 4.87598 11.3024 5.09566 11.4088 5.35267C11.5152 5.60968 11.543 5.89248 11.4886 6.16529C11.4343 6.4381 11.3003 6.68867 11.1035 6.8853C10.973 7.01596 10.8181 7.11962 10.6475 7.19034C10.477 7.26106 10.2941 7.29746 10.1095 7.29746C9.92483 7.29746 9.74199 7.26106 9.57142 7.19034C9.40085 7.11962 9.2459 7.01596 9.11543 6.8853Z" fill="#0075FF"/>
<path d="M5.43371 12.2028C5.27317 12.3636 5.01565 12.4263 4.70569 12.4799C4.0093 12.5986 3.39436 11.9968 3.51946 11.2928C3.56721 11.0259 3.70842 10.6518 3.79631 10.5639C3.81552 10.545 3.82831 10.5206 3.83286 10.4941C3.8374 10.4676 3.83348 10.4403 3.82164 10.4162C3.8098 10.392 3.79065 10.3722 3.76691 10.3595C3.74317 10.3468 3.71604 10.342 3.68938 10.3456C3.29995 10.3933 2.93766 10.5698 2.66018 10.8472C1.97141 11.5365 1.90637 14.0945 1.90637 14.0945C1.90637 14.0945 4.46575 14.0294 5.15452 13.3401C5.43274 13.0628 5.60952 12.7 5.65637 12.31C5.66721 12.1875 5.51809 12.1146 5.43371 12.2028Z" fill="#0075FF"/>
</svg>
