<svg width="12" height="12" viewBox="0 0 12 12" fill="none" xmlns="http://www.w3.org/2000/svg">
<g clip-path="url(#clip0_1_457)">
<path d="M10.2225 3.62306C10.2354 3.61549 10.2462 3.60466 10.2537 3.59163C10.2612 3.57861 10.2651 3.56385 10.2651 3.54883C10.2651 3.53381 10.2612 3.51906 10.2537 3.50603C10.2462 3.49301 10.2354 3.48217 10.2225 3.4746L6.94095 1.56808C6.73098 1.44638 6.4926 1.38228 6.24991 1.38228C6.00722 1.38228 5.76883 1.44638 5.55886 1.56808L2.27798 3.4746C2.26501 3.48217 2.25425 3.49301 2.24677 3.50603C2.23929 3.51906 2.23535 3.53381 2.23535 3.54883C2.23535 3.56385 2.23929 3.57861 2.24677 3.59163C2.25425 3.60466 2.26501 3.61549 2.27798 3.62306L6.20704 5.93435C6.22026 5.94213 6.23532 5.94624 6.25066 5.94624C6.266 5.94624 6.28106 5.94213 6.29427 5.93435L10.2225 3.62306Z" fill="white"/>
<path d="M1.91016 4.20738C1.89705 4.19981 1.88218 4.19584 1.86705 4.19586C1.85192 4.19589 1.83706 4.19991 1.82398 4.20751C1.8109 4.21512 1.80006 4.22605 1.79256 4.23919C1.78505 4.25233 1.78115 4.26722 1.78125 4.28236V8.01827C1.78158 8.19831 1.82903 8.37512 1.91888 8.53112C2.00874 8.68713 2.13787 8.81689 2.29344 8.90751L5.77735 10.9964C5.7904 11.004 5.80521 11.0079 5.82029 11.0079C5.83537 11.008 5.85018 11.004 5.86324 10.9965C5.87631 10.9889 5.88716 10.9781 5.89471 10.965C5.90225 10.952 5.90624 10.9372 5.90625 10.9221V6.58763C5.90624 6.57256 5.90226 6.55776 5.89472 6.54471C5.88717 6.53166 5.87633 6.52083 5.86328 6.51329L1.91016 4.20738Z" fill="white"/>
<path d="M6.59375 6.60269V10.9211C6.59377 10.9361 6.59775 10.9509 6.6053 10.964C6.61285 10.977 6.6237 10.9879 6.63676 10.9954C6.64982 11.0029 6.66463 11.0069 6.67971 11.0069C6.69479 11.0069 6.7096 11.0029 6.72266 10.9954L10.2063 8.90646C10.3618 8.81597 10.4909 8.68638 10.5808 8.53058C10.6706 8.37478 10.7182 8.19817 10.7187 8.0183V4.28238C10.7187 4.26732 10.7147 4.25254 10.7071 4.23952C10.6996 4.2265 10.6887 4.21569 10.6756 4.20818C10.6626 4.20068 10.6478 4.19673 10.6327 4.19675C10.6177 4.19676 10.6029 4.20073 10.5898 4.20826L6.63672 6.52857C6.6237 6.53609 6.61288 6.54689 6.60534 6.5599C6.5978 6.5729 6.5938 6.58766 6.59375 6.60269V6.60269Z" fill="white"/>
</g>
<defs>
<clipPath id="clip0_1_457">
<rect width="14" height="14" fontsize="14px" fill="white" transform="translate(0.75 0.695255)"/>
</clipPath>
</defs>
</svg>
