<svg width="16" height="16" viewBox="0 0 16 16" fill="none" xmlns="http://www.w3.org/2000/svg">
<g clip-path="url(#clip0_2_2571)">
<path d="M3.54694 15.0316H2.60944C2.42296 15.0316 2.24412 14.9575 2.11226 14.8256C1.9804 14.6938 1.90632 14.5149 1.90632 14.3285V10.1097C1.90632 9.92323 1.9804 9.74439 2.11226 9.61253C2.24412 9.48067 2.42296 9.40659 2.60944 9.40659H3.54694C3.73342 9.40659 3.91227 9.48067 4.04413 9.61253C4.17599 9.74439 4.25007 9.92323 4.25007 10.1097V14.3285C4.25007 14.5149 4.17599 14.6938 4.04413 14.8256C3.91227 14.9575 3.73342 15.0316 3.54694 15.0316Z" fill="#0075FF"/>
<path d="M10.1095 15.0308H9.17197C8.98549 15.0308 8.80665 14.9567 8.67479 14.8248C8.54292 14.693 8.46885 14.5141 8.46885 14.3276V7.29639C8.46885 7.10991 8.54292 6.93106 8.67479 6.7992C8.80665 6.66734 8.98549 6.59326 9.17197 6.59326H10.1095C10.296 6.59326 10.4748 6.66734 10.6067 6.7992C10.7385 6.93106 10.8126 7.10991 10.8126 7.29639V14.3276C10.8126 14.5141 10.7385 14.693 10.6067 14.8248C10.4748 14.9567 10.296 15.0308 10.1095 15.0308Z" fill="#0075FF"/>
<path d="M13.3907 15.0311H12.4532C12.2667 15.0311 12.0879 14.957 11.956 14.8252C11.8242 14.6933 11.7501 14.5145 11.7501 14.328V4.0155C11.7501 3.82902 11.8242 3.65018 11.956 3.51832C12.0879 3.38646 12.2667 3.31238 12.4532 3.31238H13.3907C13.5772 3.31238 13.756 3.38646 13.8879 3.51832C14.0197 3.65018 14.0938 3.82902 14.0938 4.0155V14.328C14.0938 14.5145 14.0197 14.6933 13.8879 14.8252C13.756 14.957 13.5772 15.0311 13.3907 15.0311Z" fill="#0075FF"/>
<path d="M6.82821 15.0309H5.89071C5.70423 15.0309 5.52539 14.9569 5.39352 14.825C5.26166 14.6931 5.18758 14.5143 5.18758 14.3278V1.67157C5.18758 1.48509 5.26166 1.30625 5.39352 1.17439C5.52539 1.04252 5.70423 0.968445 5.89071 0.968445H6.82821C7.01469 0.968445 7.19353 1.04252 7.32539 1.17439C7.45725 1.30625 7.53133 1.48509 7.53133 1.67157V14.3278C7.53133 14.5143 7.45725 14.6931 7.32539 14.825C7.19353 14.9569 7.01469 15.0309 6.82821 15.0309Z" fill="#0075FF"/>
</g>
<defs>
<clipPath id="clip0_2_2571">
<rect width="15" height="15" fill="white" transform="translate(0.500099 0.499954)"/>
</clipPath>
</defs>
</svg>
