<svg width="27" height="27" viewBox="0 0 27 27" fill="none" xmlns="http://www.w3.org/2000/svg">
<path d="M7.59369 1.69946H12.4453C12.4981 1.69946 12.5485 1.7207 12.5859 1.75806C12.6232 1.79542 12.6445 1.84585 12.6445 1.89868V9.28149C12.6445 9.95593 12.9127 10.6024 13.3896 11.0793C13.8665 11.5562 14.513 11.8245 15.1874 11.8245H22.5703C22.6231 11.8245 22.6735 11.8457 22.7109 11.8831C22.7482 11.9204 22.7695 11.9708 22.7695 12.0237V21.9377C22.7695 22.8297 22.4149 23.6849 21.7841 24.3157C21.1534 24.9464 20.2982 25.301 19.4062 25.301H7.59369C6.70169 25.301 5.8465 24.9464 5.21576 24.3157C4.58502 23.6849 4.23041 22.8297 4.23041 21.9377V5.06274C4.23041 4.17075 4.58502 3.31555 5.21576 2.68481C5.8465 2.05408 6.70169 1.69946 7.59369 1.69946ZM9.28119 18.551C9.0543 18.551 8.83713 18.6416 8.6767 18.802C8.51627 18.9624 8.42572 19.1796 8.42572 19.4065C8.42572 19.6334 8.51627 19.8506 8.6767 20.011C8.83713 20.1714 9.05431 20.262 9.28119 20.262H17.7187C17.9456 20.262 18.1628 20.1714 18.3232 20.011C18.4836 19.8506 18.5742 19.6334 18.5742 19.4065C18.5742 19.1796 18.4836 18.9624 18.3232 18.802C18.1628 18.6416 17.9456 18.551 17.7187 18.551H9.28119ZM9.28119 14.3323C9.0543 14.3323 8.83713 14.4228 8.6767 14.5833C8.51627 14.7437 8.42572 14.9609 8.42572 15.1877C8.42572 15.4146 8.51627 15.6318 8.6767 15.7922C8.83713 15.9527 9.05431 16.0432 9.28119 16.0432H17.7187C17.9456 16.0432 18.1628 15.9527 18.3232 15.7922C18.4836 15.6318 18.5742 15.4146 18.5742 15.1877C18.5742 14.9609 18.4836 14.7437 18.3232 14.5833C18.1628 14.4228 17.9456 14.3323 17.7187 14.3323H9.28119Z" fill="white" stroke="#0075FF" stroke-width="0.0234375"/>
<path d="M14.4677 2.34619C14.4856 2.34983 14.5025 2.35864 14.5155 2.37158L22.0985 9.95557C22.1115 9.96867 22.1203 9.98529 22.1239 10.0034C22.1274 10.0215 22.1261 10.0401 22.119 10.0571C22.112 10.0742 22.1001 10.0888 22.0848 10.0991C22.0696 10.1094 22.0515 10.1146 22.0331 10.1147H15.1874C14.9669 10.1147 14.7555 10.0274 14.5995 9.87158C14.4435 9.71555 14.3553 9.50338 14.3553 9.28271V2.43799C14.3554 2.4195 14.3607 2.4006 14.371 2.38525C14.3812 2.37004 14.396 2.35812 14.413 2.35107C14.43 2.34401 14.4495 2.34261 14.4677 2.34619Z" fill="white" stroke="#0075FF" stroke-width="0.0234375"/>
</svg>
