<svg width="27" height="27" viewBox="0 0 27 27" fill="none" xmlns="http://www.w3.org/2000/svg">
<path d="M13.5002 2.53027C7.44258 2.53027 2.53143 7.44142 2.53143 13.499C2.53143 19.5566 7.44258 24.4678 13.5002 24.4678C19.5578 24.4678 24.4689 19.5566 24.4689 13.499C24.4689 7.44142 19.5578 2.53027 13.5002 2.53027Z" fill="white" stroke="#0075FF" stroke-width="0.75" stroke-miterlimit="10"/>
<path d="M13.5001 2.53027C10.4378 2.53027 7.55847 7.44142 7.55847 13.499C7.55847 19.5566 10.4378 24.4678 13.5001 24.4678C16.5623 24.4678 19.4416 19.5566 19.4416 13.499C19.4416 7.44142 16.5623 2.53027 13.5001 2.53027Z" fill="white" stroke="#0075FF" stroke-width="0.75" stroke-miterlimit="10"/>
<path d="M6.18744 6.18652C8.204 7.61826 10.7426 8.47203 13.5001 8.47203C16.2576 8.47203 18.7962 7.61826 20.8128 6.18652" fill="white"/>
<path d="M6.18744 6.18652C8.204 7.61826 10.7426 8.47203 13.5001 8.47203C16.2576 8.47203 18.7962 7.61826 20.8128 6.18652" stroke="#0075FF" stroke-width="0.75" stroke-linecap="round" stroke-linejoin="round"/>
<path d="M20.8128 20.8133C18.7962 19.3816 16.2576 18.5278 13.5001 18.5278C10.7426 18.5278 8.204 19.3816 6.18744 20.8133" stroke="#0075FF" stroke-width="0.75" stroke-linecap="round" stroke-linejoin="round"/>
<path d="M13.5001 2.53027V24.4678" stroke="#0075FF" stroke-width="0.75" stroke-miterlimit="10"/>
<path d="M24.4689 13.4988H2.53143" stroke="#0075FF" stroke-width="0.75" stroke-miterlimit="10"/>
</svg>
