<svg width="15" height="15" viewBox="0 0 15 15" fill="none" xmlns="http://www.w3.org/2000/svg">
<g clip-path="url(#clip0_3_398)">
<path d="M7.6629 2.96736C7.61929 2.92563 7.56125 2.90234 7.50089 2.90234C7.44053 2.90234 7.3825 2.92563 7.33888 2.96736L1.94533 8.11979C1.92242 8.14171 1.9042 8.16804 1.89176 8.19719C1.87932 8.22635 1.87293 8.25773 1.87296 8.28942L1.87209 13.1252C1.87209 13.3738 1.97086 13.6123 2.14667 13.7881C2.32249 13.9639 2.56094 14.0627 2.80959 14.0627H5.62501C5.74933 14.0627 5.86856 14.0133 5.95647 13.9254C6.04438 13.8375 6.09376 13.7182 6.09376 13.5939V9.60954C6.09376 9.54738 6.11846 9.48777 6.16241 9.44381C6.20636 9.39986 6.26598 9.37517 6.32814 9.37517H8.67189C8.73405 9.37517 8.79366 9.39986 8.83762 9.44381C8.88157 9.48777 8.90626 9.54738 8.90626 9.60954V13.5939C8.90626 13.7182 8.95565 13.8375 9.04356 13.9254C9.13146 14.0133 9.25069 14.0627 9.37501 14.0627H12.1893C12.4379 14.0627 12.6764 13.9639 12.8522 13.7881C13.028 13.6123 13.1268 13.3738 13.1268 13.1252V8.28942C13.1268 8.25773 13.1204 8.22635 13.108 8.19719C13.0955 8.16804 13.0773 8.14171 13.0544 8.11979L7.6629 2.96736Z" fill="white"/>
<path d="M14.3825 7.15381L12.1911 5.05732V1.87598C12.1911 1.75166 12.1417 1.63243 12.0538 1.54452C11.9659 1.45661 11.8467 1.40723 11.7223 1.40723H10.3161C10.1918 1.40723 10.0725 1.45661 9.98462 1.54452C9.89672 1.63243 9.84733 1.75166 9.84733 1.87598V2.81348L8.15046 1.19102C7.99167 1.03047 7.75554 0.938477 7.50036 0.938477C7.24606 0.938477 7.01052 1.03047 6.85173 1.19131L0.620284 7.15322C0.438057 7.329 0.415206 7.61816 0.581026 7.80859C0.622666 7.85666 0.673651 7.89575 0.730879 7.92349C0.788107 7.95122 0.85038 7.96703 0.913909 7.96993C0.977438 7.97284 1.04089 7.96278 1.10041 7.94039C1.15993 7.91799 1.21427 7.88371 1.26013 7.83965L7.33923 2.03066C7.38284 1.98894 7.44088 1.96565 7.50124 1.96565C7.5616 1.96565 7.61963 1.98894 7.66325 2.03066L13.7429 7.83965C13.8325 7.92553 13.9524 7.9724 14.0765 7.96999C14.2006 7.96757 14.3186 7.91606 14.4048 7.82676C14.5846 7.64043 14.5697 7.33281 14.3825 7.15381Z" fill="white"/>
</g>
<defs>
<clipPath id="clip0_3_398">
<rect width="15" height="15" fill="white"/>
</clipPath>
</defs>
</svg>
