<svg width="14" height="15" viewBox="0 0 14 15" fill="none" xmlns="http://www.w3.org/2000/svg">
<path d="M12.0478 9.47963C12.0027 9.42534 11.9584 9.37105 11.915 9.31866C11.3178 8.59631 10.9565 8.16036 10.9565 6.11549C10.9565 5.05681 10.7032 4.18815 10.204 3.53666C9.83594 3.05537 9.33836 2.69027 8.68253 2.42044C8.67409 2.41574 8.66655 2.40959 8.66027 2.40225C8.42438 1.61232 7.77885 1.08325 7.05081 1.08325C6.32277 1.08325 5.67752 1.61232 5.44163 2.40144C5.43533 2.4085 5.4279 2.41447 5.41964 2.41908C3.88918 3.04913 3.14539 4.25792 3.14539 6.11467C3.14539 8.16036 2.78462 8.59631 2.18688 9.31784C2.14345 9.37023 2.0992 9.42344 2.05414 9.47881C1.93774 9.61919 1.86399 9.78997 1.84162 9.97095C1.81925 10.1519 1.8492 10.3355 1.92791 10.5C2.0954 10.8529 2.45236 11.072 2.85982 11.072H11.2448C11.6503 11.072 12.0049 10.8532 12.1729 10.5019C12.252 10.3374 12.2822 10.1536 12.26 9.97246C12.2378 9.79127 12.1642 9.62023 12.0478 9.47963V9.47963Z" fill="#718096"/>
<path d="M7.05074 13.2446C7.443 13.2443 7.82786 13.1378 8.16451 12.9365C8.50115 12.7351 8.77702 12.4464 8.96287 12.101C8.97162 12.0844 8.97595 12.0659 8.97542 12.0472C8.97489 12.0285 8.96953 12.0102 8.95986 11.9942C8.95019 11.9781 8.93654 11.9649 8.92022 11.9557C8.90391 11.9465 8.8855 11.9416 8.86677 11.9417H5.23524C5.21649 11.9416 5.19805 11.9464 5.1817 11.9556C5.16535 11.9647 5.15166 11.978 5.14195 11.994C5.13225 12.0101 5.12687 12.0284 5.12633 12.0471C5.12579 12.0659 5.13011 12.0844 5.13888 12.101C5.3247 12.4464 5.60053 12.7351 5.93712 12.9364C6.27371 13.1378 6.65852 13.2443 7.05074 13.2446Z" fill="#718096"/>
</svg>
