<svg width="28" height="21" viewBox="0 0 28 21" fill="none" xmlns="http://www.w3.org/2000/svg">
<path d="M20.1293 15.0958L17.3728 12.3393C18.0365 11.4558 18.3947 10.3804 18.3935 9.27543C18.3935 6.45297 16.0972 4.15668 13.2748 4.15668C10.4523 4.15668 8.15601 6.45297 8.15601 9.27543C8.15601 12.0979 10.4523 14.3942 13.2748 14.3942C14.3797 14.3954 15.4551 14.0371 16.3386 13.3735L19.0952 16.13C19.2347 16.2547 19.4167 16.3213 19.6038 16.3161C19.7909 16.3109 19.9688 16.2342 20.1012 16.1019C20.2335 15.9695 20.3102 15.7915 20.3154 15.6045C20.3207 15.4174 20.2541 15.2354 20.1293 15.0958ZM9.61851 9.27543C9.61851 8.55229 9.83294 7.84539 10.2347 7.24413C10.6364 6.64286 11.2075 6.17423 11.8756 5.8975C12.5437 5.62076 13.2788 5.54836 13.9881 5.68943C14.6973 5.83051 15.3488 6.17874 15.8601 6.69007C16.3714 7.20141 16.7197 7.85289 16.8607 8.56213C17.0018 9.27137 16.9294 10.0065 16.6527 10.6746C16.376 11.3427 15.9073 11.9137 15.3061 12.3155C14.7048 12.7172 13.9979 12.9317 13.2748 12.9317C12.3054 12.9305 11.3761 12.5449 10.6907 11.8595C10.0053 11.1741 9.61967 10.2448 9.61851 9.27543Z" fill="#2D3748"/>
</svg>
