<svg width="15" height="15" viewBox="0 0 15 15" fill="none" xmlns="http://www.w3.org/2000/svg">
<g clip-path="url(#clip0_3_566)">
<path d="M7.46264 4.99273C7.03313 4.99273 6.61326 5.12009 6.25614 5.35871C5.89901 5.59734 5.62067 5.9365 5.4563 6.33332C5.29193 6.73013 5.24893 7.16678 5.33272 7.58803C5.41652 8.00929 5.62334 8.39624 5.92705 8.69995C6.23076 9.00366 6.61771 9.21049 7.03897 9.29428C7.46023 9.37807 7.89687 9.33507 8.29369 9.1707C8.6905 9.00634 9.02967 8.72799 9.26829 8.37087C9.50691 8.01374 9.63428 7.59388 9.63428 7.16437C9.63256 6.58894 9.40321 6.03757 8.99632 5.63068C8.58943 5.22379 8.03806 4.99444 7.46264 4.99273ZM12.1512 7.16437C12.1501 7.36728 12.1352 7.56989 12.1067 7.7708L13.4284 8.80558C13.486 8.85312 13.5248 8.91957 13.5378 8.99307C13.5509 9.06657 13.5374 9.14232 13.4998 9.20679L12.2495 11.3654C12.2115 11.4293 12.1521 11.4778 12.0819 11.5022C12.0117 11.5267 11.9351 11.5257 11.8656 11.4992L10.3116 10.8749C9.98795 11.1241 9.63382 11.3309 9.25777 11.4903L9.0254 13.1402C9.0124 13.2141 8.97413 13.2812 8.91714 13.33C8.86015 13.3788 8.78798 13.4063 8.71296 13.4078H6.21231C6.13865 13.4064 6.06766 13.38 6.01091 13.3331C5.95416 13.2861 5.91502 13.2212 5.89987 13.1491L5.6675 11.4992C5.29042 11.3417 4.93603 11.1346 4.61371 10.8833L3.05963 11.5076C2.99016 11.5341 2.9136 11.5352 2.84339 11.5108C2.77319 11.4863 2.71385 11.4379 2.6758 11.3741L1.42547 9.21575C1.38784 9.15128 1.37436 9.07553 1.38743 9.00203C1.40051 8.92853 1.4393 8.86208 1.49687 8.81454L2.81858 7.77976C2.79039 7.57581 2.77552 7.37025 2.77406 7.16437C2.77519 6.96145 2.79007 6.75884 2.81858 6.55794L1.49687 5.52315C1.4393 5.47562 1.40051 5.40916 1.38743 5.33566C1.37436 5.26217 1.38784 5.18641 1.42547 5.12194L2.6758 2.96333C2.71381 2.89942 2.77313 2.85097 2.84334 2.8265C2.91354 2.80202 2.99013 2.80308 3.05963 2.8295L4.61371 3.45385C4.93732 3.20465 5.29145 2.99785 5.6675 2.83846L5.89987 1.18855C5.91287 1.11465 5.95114 1.04756 6.00813 0.998737C6.06512 0.949918 6.13729 0.922405 6.21231 0.920898H8.71296C8.78662 0.922332 8.85761 0.948693 8.91436 0.995678C8.97111 1.04266 9.01025 1.1075 9.0254 1.1796L9.25777 2.8295C9.63533 2.98694 9.99018 3.19408 10.3129 3.44543L11.8656 2.82108C11.9351 2.79464 12.0117 2.79354 12.0819 2.81796C12.1521 2.84239 12.2114 2.89079 12.2495 2.95464L13.4998 5.11325C13.5374 5.17772 13.5509 5.25348 13.5378 5.32698C13.5248 5.40048 13.486 5.46693 13.4284 5.51446L12.1067 6.54925C12.1349 6.7531 12.1497 6.95858 12.1512 7.16437Z" fill="#718096"/>
</g>
<defs>
<clipPath id="clip0_3_566">
<rect width="13.8985" height="13.8985" fill="white" transform="translate(0.513428 0.214844)"/>
</clipPath>
</defs>
</svg>
