<svg width="12" height="12" viewBox="0 0 12 12" fill="none" xmlns="http://www.w3.org/2000/svg">
<path d="M5.43574 4.28717C5.43574 4.56646 5.43574 4.83717 5.52383 5.09068C4.59785 6.17779 2.15293 9.05025 1.9252 9.26939C1.87993 9.31 1.84373 9.35968 1.81893 9.41521C1.79413 9.47073 1.78129 9.53085 1.78125 9.59166C1.78125 9.77428 1.89297 9.95045 1.9875 10.0493C2.1293 10.1975 2.73516 10.7583 2.84687 10.6508C3.17773 10.3286 3.24434 10.2426 3.37969 10.1094C3.58379 9.90963 3.3582 9.50142 3.4291 9.336C3.5 9.17057 3.5752 9.13834 3.69766 9.11256C3.82012 9.08678 4.03711 9.17486 4.20684 9.17701C4.38516 9.17916 4.48184 9.10396 4.61504 8.97935C4.72246 8.88053 4.7998 8.78814 4.80195 8.6442C4.80625 8.45084 4.52695 8.19518 4.73535 7.99107C4.94375 7.78697 5.24453 8.12428 5.46582 8.0985C5.68711 8.07271 5.95566 7.76549 5.98359 7.63443C6.01152 7.50338 5.73223 7.16607 5.77519 6.97486C5.79023 6.91041 5.92129 6.76002 6.02012 6.73853C6.11895 6.71705 6.55723 6.88678 6.65605 6.86529C6.77637 6.83951 6.91602 6.71275 7.02988 6.64185C7.36289 6.7858 7.66582 6.84381 8.05469 6.84381C9.52637 6.84381 10.7187 5.69654 10.7187 4.28287C10.7187 2.8692 9.52637 1.72688 8.05469 1.72688C6.58301 1.72688 5.43574 2.8735 5.43574 4.28717ZM9.34375 3.78937C9.34375 3.92535 9.30343 4.05827 9.22788 4.17133C9.15234 4.28439 9.04497 4.37251 8.91934 4.42454C8.79372 4.47658 8.65549 4.49019 8.52212 4.46366C8.38876 4.43714 8.26626 4.37166 8.17011 4.27551C8.07397 4.17936 8.00849 4.05686 7.98196 3.9235C7.95543 3.79014 7.96905 3.6519 8.02108 3.52628C8.07312 3.40066 8.16124 3.29328 8.27429 3.21774C8.38735 3.1422 8.52027 3.10188 8.65625 3.10188C8.83859 3.10188 9.01345 3.17431 9.14239 3.30324C9.27132 3.43217 9.34375 3.60704 9.34375 3.78937Z" fill="white"/>
</svg>
