<svg width="12" height="12" viewBox="0 0 12 12" fill="none" xmlns="http://www.w3.org/2000/svg">
<path d="M5.75 1.726C3.28596 1.726 1.28125 3.7307 1.28125 6.19475C1.28125 8.65879 3.28596 10.6635 5.75 10.6635C8.21404 10.6635 10.2187 8.65879 10.2187 6.19475C10.2187 3.7307 8.21404 1.726 5.75 1.726ZM4.67105 4.2358C4.94326 3.94727 5.32633 3.7885 5.75 3.7885C6.17367 3.7885 6.5533 3.94834 6.82658 4.23838C7.10351 4.53229 7.23822 4.92717 7.20643 5.3517C7.14283 6.19475 6.48971 6.88225 5.75 6.88225C5.01029 6.88225 4.35588 6.19475 4.29357 5.35149C4.26199 4.92352 4.39648 4.52735 4.67105 4.2358ZM5.75 9.976C5.24522 9.97633 4.74551 9.8753 4.2805 9.67889C3.8155 9.48248 3.39467 9.19469 3.04297 8.8326C3.2444 8.54534 3.50105 8.30111 3.79793 8.11416C4.34557 7.76311 5.03865 7.56975 5.75 7.56975C6.46135 7.56975 7.15443 7.76311 7.70142 8.11416C7.99855 8.30102 8.25543 8.54527 8.45703 8.8326C8.10536 9.19473 7.68454 9.48254 7.21953 9.67896C6.75451 9.87537 6.25479 9.97638 5.75 9.976V9.976Z" fill="white"/>
</svg>
