<svg width="27" height="27" viewBox="0 0 27 27" fill="none" xmlns="http://www.w3.org/2000/svg">
<path d="M5.03602 5.48194H21.911C22.1081 5.48185 22.3051 5.49436 22.5006 5.51939C22.4343 5.05415 22.2745 4.60715 22.0308 4.20534C21.7871 3.80354 21.4646 3.45524 21.0826 3.18146C20.7007 2.90768 20.2672 2.71408 19.8085 2.61234C19.3497 2.51059 18.875 2.50281 18.4131 2.58946L4.53504 4.95882H4.51922C3.64809 5.12541 2.87342 5.61828 2.35342 6.33677C3.13684 5.77954 4.07464 5.4807 5.03602 5.48194Z" fill="white"/>
<path d="M21.9112 6.74976H5.03619C4.14139 6.75073 3.28351 7.10663 2.65079 7.73935C2.01806 8.37207 1.66217 9.22995 1.66119 10.1248V20.2498C1.66217 21.1446 2.01806 22.0024 2.65079 22.6352C3.28351 23.2679 4.14139 23.6238 5.03619 23.6248H21.9112C22.806 23.6238 23.6639 23.2679 24.2966 22.6352C24.9293 22.0024 25.2852 21.1446 25.2862 20.2498V10.1248C25.2852 9.22995 24.9293 8.37207 24.2966 7.73935C23.6639 7.10663 22.806 6.75073 21.9112 6.74976ZM19.4063 16.8748C19.0725 16.8748 18.7463 16.7758 18.4688 16.5904C18.1913 16.4049 17.975 16.1414 17.8473 15.833C17.7195 15.5247 17.6861 15.1854 17.7512 14.858C17.8163 14.5307 17.9771 14.23 18.2131 13.994C18.4491 13.758 18.7497 13.5973 19.0771 13.5322C19.4044 13.4671 19.7437 13.5005 20.0521 13.6282C20.3604 13.7559 20.624 13.9722 20.8094 14.2497C20.9948 14.5272 21.0938 14.8535 21.0938 15.1873C21.0938 15.6348 20.916 16.064 20.5995 16.3805C20.2831 16.697 19.8539 16.8748 19.4063 16.8748Z" fill="white"/>
<path d="M1.68747 13.6816V8.43457C1.68747 7.29182 2.32028 5.37598 4.51667 4.96096C6.38083 4.61133 8.22653 4.61133 8.22653 4.61133C8.22653 4.61133 9.43942 5.45508 8.43747 5.45508C7.43551 5.45508 7.46188 6.74707 8.43747 6.74707C9.41305 6.74707 8.43747 7.98633 8.43747 7.98633L4.50876 12.4424L1.68747 13.6816Z" fill="white"/>
</svg>
